<mxfile host="app.diagrams.net" modified="2023-12-30T18:52:09.650Z" agent="Mozilla/5.0 (Windows NT 10.0; Win64; x64) AppleWebKit/537.36 (KHTML, like Gecko) Chrome/120.0.0.0 Safari/537.36" etag="60e8ByHuuk7gKNdTB0Lt" version="22.1.16" type="device">
  <diagram id="C5RBs43oDa-KdzZeNtuy" name="Page-1">
    <mxGraphModel dx="3088" dy="1949" grid="1" gridSize="10" guides="1" tooltips="1" connect="1" arrows="1" fold="1" page="1" pageScale="1" pageWidth="827" pageHeight="1169" math="0" shadow="0">
      <root>
        <mxCell id="WIyWlLk6GJQsqaUBKTNV-0" />
        <mxCell id="WIyWlLk6GJQsqaUBKTNV-1" parent="WIyWlLk6GJQsqaUBKTNV-0" />
        <mxCell id="OT7LKlSEbB8u1TtDUH0v-0" value="«interface»&lt;br style=&quot;font-size: 18px;&quot;&gt;&lt;b style=&quot;font-size: 18px;&quot;&gt;Discipline&lt;/b&gt;" style="html=1;whiteSpace=wrap;fontSize=18;" parent="WIyWlLk6GJQsqaUBKTNV-1" vertex="1">
          <mxGeometry x="110" y="300" width="210" height="50" as="geometry" />
        </mxCell>
        <mxCell id="OT7LKlSEbB8u1TtDUH0v-1" value="WallClimb" style="swimlane;fontStyle=1;align=center;verticalAlign=top;childLayout=stackLayout;horizontal=1;startSize=26;horizontalStack=0;resizeParent=1;resizeParentMax=0;resizeLast=0;collapsible=1;marginBottom=0;whiteSpace=wrap;html=1;fontSize=18;" parent="WIyWlLk6GJQsqaUBKTNV-1" vertex="1">
          <mxGeometry x="-190" y="764" width="160" height="80" as="geometry" />
        </mxCell>
        <mxCell id="OT7LKlSEbB8u1TtDUH0v-3" value="" style="line;strokeWidth=1;fillColor=none;align=left;verticalAlign=middle;spacingTop=-1;spacingLeft=3;spacingRight=3;rotatable=0;labelPosition=right;points=[];portConstraint=eastwest;strokeColor=inherit;" parent="OT7LKlSEbB8u1TtDUH0v-1" vertex="1">
          <mxGeometry y="26" width="160" height="54" as="geometry" />
        </mxCell>
        <mxCell id="OT7LKlSEbB8u1TtDUH0v-5" value="HighJump" style="swimlane;fontStyle=1;align=center;verticalAlign=top;childLayout=stackLayout;horizontal=1;startSize=26;horizontalStack=0;resizeParent=1;resizeParentMax=0;resizeLast=0;collapsible=1;marginBottom=0;whiteSpace=wrap;html=1;fontSize=18;" parent="WIyWlLk6GJQsqaUBKTNV-1" vertex="1">
          <mxGeometry x="-10" y="764" width="160" height="80" as="geometry" />
        </mxCell>
        <mxCell id="OT7LKlSEbB8u1TtDUH0v-6" value="" style="line;strokeWidth=1;fillColor=none;align=left;verticalAlign=middle;spacingTop=-1;spacingLeft=3;spacingRight=3;rotatable=0;labelPosition=right;points=[];portConstraint=eastwest;strokeColor=inherit;" parent="OT7LKlSEbB8u1TtDUH0v-5" vertex="1">
          <mxGeometry y="26" width="160" height="54" as="geometry" />
        </mxCell>
        <mxCell id="OT7LKlSEbB8u1TtDUH0v-7" value="LongJump" style="swimlane;fontStyle=1;align=center;verticalAlign=top;childLayout=stackLayout;horizontal=1;startSize=26;horizontalStack=0;resizeParent=1;resizeParentMax=0;resizeLast=0;collapsible=1;marginBottom=0;whiteSpace=wrap;html=1;fontSize=18;" parent="WIyWlLk6GJQsqaUBKTNV-1" vertex="1">
          <mxGeometry x="160" y="764" width="160" height="80" as="geometry" />
        </mxCell>
        <mxCell id="OT7LKlSEbB8u1TtDUH0v-8" value="" style="line;strokeWidth=1;fillColor=none;align=left;verticalAlign=middle;spacingTop=-1;spacingLeft=3;spacingRight=3;rotatable=0;labelPosition=right;points=[];portConstraint=eastwest;strokeColor=inherit;" parent="OT7LKlSEbB8u1TtDUH0v-7" vertex="1">
          <mxGeometry y="26" width="160" height="54" as="geometry" />
        </mxCell>
        <mxCell id="OT7LKlSEbB8u1TtDUH0v-12" value="" style="endArrow=block;dashed=1;endFill=0;endSize=12;html=1;rounded=0;entryX=0.342;entryY=1.023;entryDx=0;entryDy=0;entryPerimeter=0;exitX=0.5;exitY=0;exitDx=0;exitDy=0;fontSize=18;" parent="WIyWlLk6GJQsqaUBKTNV-1" source="OT7LKlSEbB8u1TtDUH0v-29" target="OT7LKlSEbB8u1TtDUH0v-0" edge="1">
          <mxGeometry width="160" relative="1" as="geometry">
            <mxPoint x="250" y="125.27999999999997" as="sourcePoint" />
            <mxPoint x="256" y="143" as="targetPoint" />
          </mxGeometry>
        </mxCell>
        <mxCell id="OT7LKlSEbB8u1TtDUH0v-24" value="&lt;font style=&quot;font-size: 18px;&quot;&gt;Implements&lt;/font&gt;" style="edgeLabel;html=1;align=center;verticalAlign=middle;resizable=0;points=[];" parent="OT7LKlSEbB8u1TtDUH0v-12" vertex="1" connectable="0">
          <mxGeometry x="-0.1717" y="-1" relative="1" as="geometry">
            <mxPoint as="offset" />
          </mxGeometry>
        </mxCell>
        <mxCell id="OT7LKlSEbB8u1TtDUH0v-14" value="" style="endArrow=block;dashed=1;endFill=0;endSize=12;html=1;rounded=0;entryX=0.851;entryY=1.046;entryDx=0;entryDy=0;exitX=0.5;exitY=0;exitDx=0;exitDy=0;entryPerimeter=0;" parent="WIyWlLk6GJQsqaUBKTNV-1" source="OT7LKlSEbB8u1TtDUH0v-36" target="OT7LKlSEbB8u1TtDUH0v-0" edge="1">
          <mxGeometry width="160" relative="1" as="geometry">
            <mxPoint x="539.9999999999998" y="220" as="sourcePoint" />
            <mxPoint x="368" y="70" as="targetPoint" />
          </mxGeometry>
        </mxCell>
        <mxCell id="OT7LKlSEbB8u1TtDUH0v-26" value="&lt;font style=&quot;font-size: 18px;&quot;&gt;Implements&lt;/font&gt;" style="edgeLabel;html=1;align=center;verticalAlign=middle;resizable=0;points=[];" parent="OT7LKlSEbB8u1TtDUH0v-14" vertex="1" connectable="0">
          <mxGeometry x="0.0903" y="-1" relative="1" as="geometry">
            <mxPoint as="offset" />
          </mxGeometry>
        </mxCell>
        <mxCell id="OT7LKlSEbB8u1TtDUH0v-18" value="DisciplineFactory" style="swimlane;fontStyle=1;align=center;verticalAlign=top;childLayout=stackLayout;horizontal=1;startSize=26;horizontalStack=0;resizeParent=1;resizeParentMax=0;resizeLast=0;collapsible=1;marginBottom=0;whiteSpace=wrap;html=1;fontSize=18;" parent="WIyWlLk6GJQsqaUBKTNV-1" vertex="1">
          <mxGeometry x="70" y="130" width="400" height="94" as="geometry" />
        </mxCell>
        <mxCell id="OT7LKlSEbB8u1TtDUH0v-20" value="" style="line;strokeWidth=1;fillColor=none;align=left;verticalAlign=middle;spacingTop=-1;spacingLeft=3;spacingRight=3;rotatable=0;labelPosition=right;points=[];portConstraint=eastwest;strokeColor=inherit;" parent="OT7LKlSEbB8u1TtDUH0v-18" vertex="1">
          <mxGeometry y="26" width="400" height="8" as="geometry" />
        </mxCell>
        <mxCell id="OT7LKlSEbB8u1TtDUH0v-21" value="+ createDiscipline(disciplineType): Discipline" style="text;strokeColor=none;fillColor=none;align=left;verticalAlign=top;spacingLeft=4;spacingRight=4;overflow=hidden;rotatable=0;points=[[0,0.5],[1,0.5]];portConstraint=eastwest;whiteSpace=wrap;html=1;fontSize=18;" parent="OT7LKlSEbB8u1TtDUH0v-18" vertex="1">
          <mxGeometry y="34" width="400" height="60" as="geometry" />
        </mxCell>
        <mxCell id="OT7LKlSEbB8u1TtDUH0v-22" value="Use" style="endArrow=open;endSize=12;dashed=1;html=1;rounded=0;entryX=0.5;entryY=0;entryDx=0;entryDy=0;exitX=0.351;exitY=1.067;exitDx=0;exitDy=0;exitPerimeter=0;fontSize=18;" parent="WIyWlLk6GJQsqaUBKTNV-1" source="OT7LKlSEbB8u1TtDUH0v-21" target="OT7LKlSEbB8u1TtDUH0v-0" edge="1">
          <mxGeometry width="160" relative="1" as="geometry">
            <mxPoint x="320" y="110" as="sourcePoint" />
            <mxPoint x="480" y="110" as="targetPoint" />
          </mxGeometry>
        </mxCell>
        <mxCell id="OT7LKlSEbB8u1TtDUH0v-29" value="MarkTableDiscipline" style="swimlane;fontStyle=1;align=center;verticalAlign=top;childLayout=stackLayout;horizontal=1;startSize=26;horizontalStack=0;resizeParent=1;resizeParentMax=0;resizeLast=0;collapsible=1;marginBottom=0;whiteSpace=wrap;html=1;fontSize=18;" parent="WIyWlLk6GJQsqaUBKTNV-1" vertex="1">
          <mxGeometry x="-40" y="440" width="230" height="200" as="geometry" />
        </mxCell>
        <mxCell id="OT7LKlSEbB8u1TtDUH0v-30" value="+ photo: ImageBox&lt;br style=&quot;font-size: 18px;&quot;&gt;+ attemptsTable: Table&lt;br style=&quot;font-size: 18px;&quot;&gt;+ cancelButton: Button&lt;br style=&quot;font-size: 18px;&quot;&gt;+ finishButton: Button" style="text;strokeColor=none;fillColor=none;align=left;verticalAlign=top;spacingLeft=4;spacingRight=4;overflow=hidden;rotatable=0;points=[[0,0.5],[1,0.5]];portConstraint=eastwest;whiteSpace=wrap;html=1;fontSize=18;" parent="OT7LKlSEbB8u1TtDUH0v-29" vertex="1">
          <mxGeometry y="26" width="230" height="104" as="geometry" />
        </mxCell>
        <mxCell id="OT7LKlSEbB8u1TtDUH0v-31" value="" style="line;strokeWidth=1;fillColor=none;align=left;verticalAlign=middle;spacingTop=-1;spacingLeft=3;spacingRight=3;rotatable=0;labelPosition=right;points=[];portConstraint=eastwest;strokeColor=inherit;" parent="OT7LKlSEbB8u1TtDUH0v-29" vertex="1">
          <mxGeometry y="130" width="230" height="10" as="geometry" />
        </mxCell>
        <mxCell id="OT7LKlSEbB8u1TtDUH0v-32" value="+ saveMarks(marks)&lt;br style=&quot;font-size: 18px;&quot;&gt;+ onClick(Button)" style="text;strokeColor=none;fillColor=none;align=left;verticalAlign=top;spacingLeft=4;spacingRight=4;overflow=hidden;rotatable=0;points=[[0,0.5],[1,0.5]];portConstraint=eastwest;whiteSpace=wrap;html=1;fontSize=18;" parent="OT7LKlSEbB8u1TtDUH0v-29" vertex="1">
          <mxGeometry y="140" width="230" height="60" as="geometry" />
        </mxCell>
        <mxCell id="OT7LKlSEbB8u1TtDUH0v-33" value="Extends" style="endArrow=block;endSize=16;endFill=0;html=1;rounded=0;exitX=0.532;exitY=-0.007;exitDx=0;exitDy=0;exitPerimeter=0;entryX=0.162;entryY=1.072;entryDx=0;entryDy=0;entryPerimeter=0;fontSize=18;" parent="WIyWlLk6GJQsqaUBKTNV-1" source="OT7LKlSEbB8u1TtDUH0v-1" target="OT7LKlSEbB8u1TtDUH0v-32" edge="1">
          <mxGeometry width="160" relative="1" as="geometry">
            <mxPoint x="160" y="581.5699999999999" as="sourcePoint" />
            <mxPoint x="320" y="581.5699999999999" as="targetPoint" />
          </mxGeometry>
        </mxCell>
        <mxCell id="OT7LKlSEbB8u1TtDUH0v-34" value="Extends" style="endArrow=block;endSize=16;endFill=0;html=1;rounded=0;exitX=0.429;exitY=-0.033;exitDx=0;exitDy=0;exitPerimeter=0;entryX=0.481;entryY=1.072;entryDx=0;entryDy=0;entryPerimeter=0;fontSize=18;" parent="WIyWlLk6GJQsqaUBKTNV-1" source="OT7LKlSEbB8u1TtDUH0v-5" target="OT7LKlSEbB8u1TtDUH0v-32" edge="1">
          <mxGeometry x="-0.0009" width="160" relative="1" as="geometry">
            <mxPoint x="55" y="730.5699999999999" as="sourcePoint" />
            <mxPoint x="100" y="634.5699999999999" as="targetPoint" />
            <mxPoint as="offset" />
          </mxGeometry>
        </mxCell>
        <mxCell id="OT7LKlSEbB8u1TtDUH0v-35" value="Extends" style="endArrow=block;endSize=16;endFill=0;html=1;rounded=0;exitX=0.5;exitY=0;exitDx=0;exitDy=0;entryX=0.934;entryY=1.072;entryDx=0;entryDy=0;entryPerimeter=0;fontSize=18;" parent="WIyWlLk6GJQsqaUBKTNV-1" source="OT7LKlSEbB8u1TtDUH0v-7" target="OT7LKlSEbB8u1TtDUH0v-32" edge="1">
          <mxGeometry width="160" relative="1" as="geometry">
            <mxPoint x="222" y="728.5699999999999" as="sourcePoint" />
            <mxPoint x="179" y="635.5699999999999" as="targetPoint" />
          </mxGeometry>
        </mxCell>
        <mxCell id="OT7LKlSEbB8u1TtDUH0v-36" value="Treadmil" style="swimlane;fontStyle=1;align=center;verticalAlign=top;childLayout=stackLayout;horizontal=1;startSize=26;horizontalStack=0;resizeParent=1;resizeParentMax=0;resizeLast=0;collapsible=1;marginBottom=0;whiteSpace=wrap;html=1;fontSize=18;" parent="WIyWlLk6GJQsqaUBKTNV-1" vertex="1">
          <mxGeometry x="230" y="440" width="290" height="240" as="geometry" />
        </mxCell>
        <mxCell id="OT7LKlSEbB8u1TtDUH0v-37" value="+ photo: ImageBox&lt;br style=&quot;font-size: 18px;&quot;&gt;+ dogSelector: DropdownList&lt;br style=&quot;font-size: 18px;&quot;&gt;+ mark: InputBox&lt;br style=&quot;font-size: 18px;&quot;&gt;+ cancelButton: Button&lt;br style=&quot;font-size: 18px;&quot;&gt;+ finishButton: Button&lt;br style=&quot;font-size: 18px;&quot;&gt;+ saveButton: Button" style="text;strokeColor=none;fillColor=none;align=left;verticalAlign=top;spacingLeft=4;spacingRight=4;overflow=hidden;rotatable=0;points=[[0,0.5],[1,0.5]];portConstraint=eastwest;whiteSpace=wrap;html=1;fontSize=18;" parent="OT7LKlSEbB8u1TtDUH0v-36" vertex="1">
          <mxGeometry y="26" width="290" height="144" as="geometry" />
        </mxCell>
        <mxCell id="OT7LKlSEbB8u1TtDUH0v-38" value="" style="line;strokeWidth=1;fillColor=none;align=left;verticalAlign=middle;spacingTop=-1;spacingLeft=3;spacingRight=3;rotatable=0;labelPosition=right;points=[];portConstraint=eastwest;strokeColor=inherit;" parent="OT7LKlSEbB8u1TtDUH0v-36" vertex="1">
          <mxGeometry y="170" width="290" height="10" as="geometry" />
        </mxCell>
        <mxCell id="OT7LKlSEbB8u1TtDUH0v-39" value="+ saveMarks(marks)&lt;br style=&quot;font-size: 18px;&quot;&gt;+ onClick(Button)" style="text;strokeColor=none;fillColor=none;align=left;verticalAlign=top;spacingLeft=4;spacingRight=4;overflow=hidden;rotatable=0;points=[[0,0.5],[1,0.5]];portConstraint=eastwest;whiteSpace=wrap;html=1;fontSize=18;" parent="OT7LKlSEbB8u1TtDUH0v-36" vertex="1">
          <mxGeometry y="180" width="290" height="60" as="geometry" />
        </mxCell>
        <mxCell id="OT7LKlSEbB8u1TtDUH0v-42" value="Login" style="swimlane;fontStyle=1;align=center;verticalAlign=top;childLayout=stackLayout;horizontal=1;startSize=26;horizontalStack=0;resizeParent=1;resizeParentMax=0;resizeLast=0;collapsible=1;marginBottom=0;whiteSpace=wrap;html=1;fontSize=18;" parent="WIyWlLk6GJQsqaUBKTNV-1" vertex="1">
          <mxGeometry x="-710" y="-200" width="280" height="200" as="geometry" />
        </mxCell>
        <mxCell id="OT7LKlSEbB8u1TtDUH0v-43" value="+ username: InputBox&lt;br style=&quot;font-size: 18px;&quot;&gt;+ password: InputBox&lt;br style=&quot;font-size: 18px;&quot;&gt;+ okButton: Button&lt;br style=&quot;font-size: 18px;&quot;&gt;+ cancelButton: Button" style="text;strokeColor=none;fillColor=none;align=left;verticalAlign=top;spacingLeft=4;spacingRight=4;overflow=hidden;rotatable=0;points=[[0,0.5],[1,0.5]];portConstraint=eastwest;whiteSpace=wrap;html=1;fontSize=18;" parent="OT7LKlSEbB8u1TtDUH0v-42" vertex="1">
          <mxGeometry y="26" width="280" height="104" as="geometry" />
        </mxCell>
        <mxCell id="OT7LKlSEbB8u1TtDUH0v-44" value="" style="line;strokeWidth=1;fillColor=none;align=left;verticalAlign=middle;spacingTop=-1;spacingLeft=3;spacingRight=3;rotatable=0;labelPosition=right;points=[];portConstraint=eastwest;strokeColor=inherit;" parent="OT7LKlSEbB8u1TtDUH0v-42" vertex="1">
          <mxGeometry y="130" width="280" height="30" as="geometry" />
        </mxCell>
        <mxCell id="OT7LKlSEbB8u1TtDUH0v-45" value="+ login(username, password)" style="text;strokeColor=none;fillColor=none;align=left;verticalAlign=top;spacingLeft=4;spacingRight=4;overflow=hidden;rotatable=0;points=[[0,0.5],[1,0.5]];portConstraint=eastwest;whiteSpace=wrap;html=1;fontSize=18;" parent="OT7LKlSEbB8u1TtDUH0v-42" vertex="1">
          <mxGeometry y="160" width="280" height="40" as="geometry" />
        </mxCell>
        <mxCell id="OT7LKlSEbB8u1TtDUH0v-46" value="Registration" style="swimlane;fontStyle=1;align=center;verticalAlign=top;childLayout=stackLayout;horizontal=1;startSize=26;horizontalStack=0;resizeParent=1;resizeParentMax=0;resizeLast=0;collapsible=1;marginBottom=0;whiteSpace=wrap;html=1;fontSize=18;" parent="WIyWlLk6GJQsqaUBKTNV-1" vertex="1">
          <mxGeometry x="-1010" y="80" width="220" height="260" as="geometry" />
        </mxCell>
        <mxCell id="OT7LKlSEbB8u1TtDUH0v-47" value="+ dogName: InputBox&lt;br style=&quot;font-size: 18px;&quot;&gt;+ dogOwner: InputBox&lt;br style=&quot;font-size: 18px;&quot;&gt;+ dogBirthday: InputBox&lt;br style=&quot;font-size: 18px;&quot;&gt;+ dogWeight: InputBox&lt;br style=&quot;font-size: 18px;&quot;&gt;+ dogPhoto: ImageBox&lt;br style=&quot;font-size: 18px;&quot;&gt;+ saveButton: Button&lt;br style=&quot;font-size: 18px;&quot;&gt;+ cancelButton: Button" style="text;strokeColor=none;fillColor=none;align=left;verticalAlign=top;spacingLeft=4;spacingRight=4;overflow=hidden;rotatable=0;points=[[0,0.5],[1,0.5]];portConstraint=eastwest;whiteSpace=wrap;html=1;fontSize=18;" parent="OT7LKlSEbB8u1TtDUH0v-46" vertex="1">
          <mxGeometry y="26" width="220" height="164" as="geometry" />
        </mxCell>
        <mxCell id="OT7LKlSEbB8u1TtDUH0v-48" value="" style="line;strokeWidth=1;fillColor=none;align=left;verticalAlign=middle;spacingTop=-1;spacingLeft=3;spacingRight=3;rotatable=0;labelPosition=right;points=[];portConstraint=eastwest;strokeColor=inherit;" parent="OT7LKlSEbB8u1TtDUH0v-46" vertex="1">
          <mxGeometry y="190" width="220" height="30" as="geometry" />
        </mxCell>
        <mxCell id="OT7LKlSEbB8u1TtDUH0v-49" value="+ registerDog()" style="text;strokeColor=none;fillColor=none;align=left;verticalAlign=top;spacingLeft=4;spacingRight=4;overflow=hidden;rotatable=0;points=[[0,0.5],[1,0.5]];portConstraint=eastwest;whiteSpace=wrap;html=1;fontSize=18;" parent="OT7LKlSEbB8u1TtDUH0v-46" vertex="1">
          <mxGeometry y="220" width="220" height="40" as="geometry" />
        </mxCell>
        <mxCell id="OT7LKlSEbB8u1TtDUH0v-50" value="Home" style="swimlane;fontStyle=1;align=center;verticalAlign=top;childLayout=stackLayout;horizontal=1;startSize=26;horizontalStack=0;resizeParent=1;resizeParentMax=0;resizeLast=0;collapsible=1;marginBottom=0;whiteSpace=wrap;html=1;fontSize=18;" parent="WIyWlLk6GJQsqaUBKTNV-1" vertex="1">
          <mxGeometry x="-700" y="80" width="250" height="280" as="geometry" />
        </mxCell>
        <mxCell id="OT7LKlSEbB8u1TtDUH0v-51" value="+ highJumpButton: Button&lt;br&gt;+ wallClimbButton: Button&lt;br style=&quot;font-size: 18px;&quot;&gt;+ longJumpButton: Button&lt;br style=&quot;font-size: 18px;&quot;&gt;+ treadmilButton: Button&lt;br style=&quot;font-size: 18px;&quot;&gt;+ registerButton: Button&lt;br style=&quot;font-size: 18px;&quot;&gt;+ resultsButton: Button&lt;br style=&quot;font-size: 18px;&quot;&gt;+ configButton: Button&lt;br style=&quot;font-size: 18px;&quot;&gt;+ exitButton: Button" style="text;strokeColor=none;fillColor=none;align=left;verticalAlign=top;spacingLeft=4;spacingRight=4;overflow=hidden;rotatable=0;points=[[0,0.5],[1,0.5]];portConstraint=eastwest;whiteSpace=wrap;html=1;fontSize=18;" parent="OT7LKlSEbB8u1TtDUH0v-50" vertex="1">
          <mxGeometry y="26" width="250" height="174" as="geometry" />
        </mxCell>
        <mxCell id="OT7LKlSEbB8u1TtDUH0v-52" value="" style="line;strokeWidth=1;fillColor=none;align=left;verticalAlign=middle;spacingTop=-1;spacingLeft=3;spacingRight=3;rotatable=0;labelPosition=right;points=[];portConstraint=eastwest;strokeColor=inherit;" parent="OT7LKlSEbB8u1TtDUH0v-50" vertex="1">
          <mxGeometry y="200" width="250" height="30" as="geometry" />
        </mxCell>
        <mxCell id="OT7LKlSEbB8u1TtDUH0v-53" value="+ login(username, password)" style="text;strokeColor=none;fillColor=none;align=left;verticalAlign=top;spacingLeft=4;spacingRight=4;overflow=hidden;rotatable=0;points=[[0,0.5],[1,0.5]];portConstraint=eastwest;whiteSpace=wrap;html=1;fontSize=18;" parent="OT7LKlSEbB8u1TtDUH0v-50" vertex="1">
          <mxGeometry y="230" width="250" height="50" as="geometry" />
        </mxCell>
        <mxCell id="dP5X064kNW8qpl2sILZL-0" value="PreDiscipline" style="swimlane;fontStyle=1;align=center;verticalAlign=top;childLayout=stackLayout;horizontal=1;startSize=26;horizontalStack=0;resizeParent=1;resizeParentMax=0;resizeLast=0;collapsible=1;marginBottom=0;whiteSpace=wrap;html=1;fontSize=18;" parent="WIyWlLk6GJQsqaUBKTNV-1" vertex="1">
          <mxGeometry x="-370" y="100" width="360" height="200" as="geometry" />
        </mxCell>
        <mxCell id="dP5X064kNW8qpl2sILZL-1" value="+ categoryList: Dropdown List&lt;br style=&quot;font-size: 18px;&quot;&gt;+ dogList: Dropdown List&lt;br style=&quot;font-size: 18px;&quot;&gt;+ startButton: Button&lt;br style=&quot;font-size: 18px;&quot;&gt;+ cancelButton: Button" style="text;strokeColor=none;fillColor=none;align=left;verticalAlign=top;spacingLeft=4;spacingRight=4;overflow=hidden;rotatable=0;points=[[0,0.5],[1,0.5]];portConstraint=eastwest;whiteSpace=wrap;html=1;fontSize=18;" parent="dP5X064kNW8qpl2sILZL-0" vertex="1">
          <mxGeometry y="26" width="360" height="94" as="geometry" />
        </mxCell>
        <mxCell id="dP5X064kNW8qpl2sILZL-2" value="" style="line;strokeWidth=1;fillColor=none;align=left;verticalAlign=middle;spacingTop=-1;spacingLeft=3;spacingRight=3;rotatable=0;labelPosition=right;points=[];portConstraint=eastwest;strokeColor=inherit;" parent="dP5X064kNW8qpl2sILZL-0" vertex="1">
          <mxGeometry y="120" width="360" height="30" as="geometry" />
        </mxCell>
        <mxCell id="dP5X064kNW8qpl2sILZL-3" value="+ startDiscipline(discipline, category, dog)" style="text;strokeColor=none;fillColor=none;align=left;verticalAlign=top;spacingLeft=4;spacingRight=4;overflow=hidden;rotatable=0;points=[[0,0.5],[1,0.5]];portConstraint=eastwest;whiteSpace=wrap;html=1;fontSize=18;" parent="dP5X064kNW8qpl2sILZL-0" vertex="1">
          <mxGeometry y="150" width="360" height="50" as="geometry" />
        </mxCell>
        <mxCell id="dP5X064kNW8qpl2sILZL-9" value="&lt;span style=&quot;font-weight: normal;&quot;&gt;«interface»&lt;/span&gt;&lt;br&gt;Results" style="swimlane;fontStyle=1;align=center;verticalAlign=top;childLayout=stackLayout;horizontal=1;startSize=50;horizontalStack=0;resizeParent=1;resizeParentMax=0;resizeLast=0;collapsible=1;marginBottom=0;whiteSpace=wrap;html=1;fontSize=18;" parent="WIyWlLk6GJQsqaUBKTNV-1" vertex="1">
          <mxGeometry x="-730" y="473" width="360" height="174" as="geometry" />
        </mxCell>
        <mxCell id="dP5X064kNW8qpl2sILZL-10" value="+ printButton: Button&lt;br style=&quot;font-size: 18px;&quot;&gt;+ exitButton: Button" style="text;strokeColor=none;fillColor=none;align=left;verticalAlign=top;spacingLeft=4;spacingRight=4;overflow=hidden;rotatable=0;points=[[0,0.5],[1,0.5]];portConstraint=eastwest;whiteSpace=wrap;html=1;fontSize=18;" parent="dP5X064kNW8qpl2sILZL-9" vertex="1">
          <mxGeometry y="50" width="360" height="54" as="geometry" />
        </mxCell>
        <mxCell id="dP5X064kNW8qpl2sILZL-11" value="" style="line;strokeWidth=1;fillColor=none;align=left;verticalAlign=middle;spacingTop=-1;spacingLeft=3;spacingRight=3;rotatable=0;labelPosition=right;points=[];portConstraint=eastwest;strokeColor=inherit;" parent="dP5X064kNW8qpl2sILZL-9" vertex="1">
          <mxGeometry y="104" width="360" height="30" as="geometry" />
        </mxCell>
        <mxCell id="dP5X064kNW8qpl2sILZL-12" value="+ printResults()" style="text;strokeColor=none;fillColor=none;align=left;verticalAlign=top;spacingLeft=4;spacingRight=4;overflow=hidden;rotatable=0;points=[[0,0.5],[1,0.5]];portConstraint=eastwest;whiteSpace=wrap;html=1;fontSize=18;" parent="dP5X064kNW8qpl2sILZL-9" vertex="1">
          <mxGeometry y="134" width="360" height="40" as="geometry" />
        </mxCell>
        <mxCell id="dP5X064kNW8qpl2sILZL-13" value="" style="endArrow=block;dashed=1;endFill=0;endSize=12;html=1;rounded=0;entryX=0.128;entryY=1.05;entryDx=0;entryDy=0;entryPerimeter=0;exitX=0.447;exitY=-0.017;exitDx=0;exitDy=0;fontSize=18;exitPerimeter=0;" parent="WIyWlLk6GJQsqaUBKTNV-1" source="dP5X064kNW8qpl2sILZL-17" target="dP5X064kNW8qpl2sILZL-12" edge="1">
          <mxGeometry width="160" relative="1" as="geometry">
            <mxPoint x="-681.52" y="1096" as="sourcePoint" />
            <mxPoint x="-403" y="1040" as="targetPoint" />
          </mxGeometry>
        </mxCell>
        <mxCell id="dP5X064kNW8qpl2sILZL-14" value="&lt;font style=&quot;font-size: 18px;&quot;&gt;Implements&lt;/font&gt;" style="edgeLabel;html=1;align=center;verticalAlign=middle;resizable=0;points=[];" parent="dP5X064kNW8qpl2sILZL-13" vertex="1" connectable="0">
          <mxGeometry x="-0.1717" y="-1" relative="1" as="geometry">
            <mxPoint as="offset" />
          </mxGeometry>
        </mxCell>
        <mxCell id="dP5X064kNW8qpl2sILZL-17" value="SingleSourceResults" style="swimlane;fontStyle=1;align=center;verticalAlign=top;childLayout=stackLayout;horizontal=1;startSize=26;horizontalStack=0;resizeParent=1;resizeParentMax=0;resizeLast=0;collapsible=1;marginBottom=0;whiteSpace=wrap;html=1;fontSize=18;" parent="WIyWlLk6GJQsqaUBKTNV-1" vertex="1">
          <mxGeometry x="-820" y="930" width="230" height="90" as="geometry" />
        </mxCell>
        <mxCell id="dP5X064kNW8qpl2sILZL-18" value="+ results: Table" style="text;strokeColor=none;fillColor=none;align=left;verticalAlign=top;spacingLeft=4;spacingRight=4;overflow=hidden;rotatable=0;points=[[0,0.5],[1,0.5]];portConstraint=eastwest;whiteSpace=wrap;html=1;fontSize=18;" parent="dP5X064kNW8qpl2sILZL-17" vertex="1">
          <mxGeometry y="26" width="230" height="34" as="geometry" />
        </mxCell>
        <mxCell id="dP5X064kNW8qpl2sILZL-19" value="" style="line;strokeWidth=1;fillColor=none;align=left;verticalAlign=middle;spacingTop=-1;spacingLeft=3;spacingRight=3;rotatable=0;labelPosition=right;points=[];portConstraint=eastwest;strokeColor=inherit;" parent="dP5X064kNW8qpl2sILZL-17" vertex="1">
          <mxGeometry y="60" width="230" height="30" as="geometry" />
        </mxCell>
        <mxCell id="dP5X064kNW8qpl2sILZL-21" value="ResultsByCategory" style="swimlane;fontStyle=1;align=center;verticalAlign=top;childLayout=stackLayout;horizontal=1;startSize=26;horizontalStack=0;resizeParent=1;resizeParentMax=0;resizeLast=0;collapsible=1;marginBottom=0;whiteSpace=wrap;html=1;fontSize=18;" parent="WIyWlLk6GJQsqaUBKTNV-1" vertex="1">
          <mxGeometry x="-910" y="1120" width="200" height="80" as="geometry" />
        </mxCell>
        <mxCell id="dP5X064kNW8qpl2sILZL-22" value="" style="line;strokeWidth=1;fillColor=none;align=left;verticalAlign=middle;spacingTop=-1;spacingLeft=3;spacingRight=3;rotatable=0;labelPosition=right;points=[];portConstraint=eastwest;strokeColor=inherit;" parent="dP5X064kNW8qpl2sILZL-21" vertex="1">
          <mxGeometry y="26" width="200" height="54" as="geometry" />
        </mxCell>
        <mxCell id="dP5X064kNW8qpl2sILZL-23" value="GeneralResults" style="swimlane;fontStyle=1;align=center;verticalAlign=top;childLayout=stackLayout;horizontal=1;startSize=26;horizontalStack=0;resizeParent=1;resizeParentMax=0;resizeLast=0;collapsible=1;marginBottom=0;whiteSpace=wrap;html=1;fontSize=18;" parent="WIyWlLk6GJQsqaUBKTNV-1" vertex="1">
          <mxGeometry x="-680" y="1120" width="200" height="80" as="geometry" />
        </mxCell>
        <mxCell id="dP5X064kNW8qpl2sILZL-24" value="" style="line;strokeWidth=1;fillColor=none;align=left;verticalAlign=middle;spacingTop=-1;spacingLeft=3;spacingRight=3;rotatable=0;labelPosition=right;points=[];portConstraint=eastwest;strokeColor=inherit;" parent="dP5X064kNW8qpl2sILZL-23" vertex="1">
          <mxGeometry y="26" width="200" height="54" as="geometry" />
        </mxCell>
        <mxCell id="dP5X064kNW8qpl2sILZL-25" value="Extends" style="endArrow=block;endSize=16;endFill=0;html=1;rounded=0;exitX=0.38;exitY=0;exitDx=0;exitDy=0;exitPerimeter=0;entryX=0.75;entryY=1;entryDx=0;entryDy=0;fontSize=18;" parent="WIyWlLk6GJQsqaUBKTNV-1" source="dP5X064kNW8qpl2sILZL-23" target="dP5X064kNW8qpl2sILZL-17" edge="1">
          <mxGeometry x="-0.0009" width="160" relative="1" as="geometry">
            <mxPoint x="-462" y="1323" as="sourcePoint" />
            <mxPoint x="-520" y="1130" as="targetPoint" />
            <mxPoint as="offset" />
          </mxGeometry>
        </mxCell>
        <mxCell id="dP5X064kNW8qpl2sILZL-26" value="Extends" style="endArrow=block;endSize=16;endFill=0;html=1;rounded=0;exitX=0.5;exitY=0;exitDx=0;exitDy=0;entryX=0.25;entryY=1;entryDx=0;entryDy=0;fontSize=18;" parent="WIyWlLk6GJQsqaUBKTNV-1" source="dP5X064kNW8qpl2sILZL-21" target="dP5X064kNW8qpl2sILZL-17" edge="1">
          <mxGeometry x="-0.0009" width="160" relative="1" as="geometry">
            <mxPoint x="-624" y="1259" as="sourcePoint" />
            <mxPoint x="-687" y="1180" as="targetPoint" />
            <mxPoint as="offset" />
          </mxGeometry>
        </mxCell>
        <mxCell id="dP5X064kNW8qpl2sILZL-27" value="ResultsByDiscipline" style="swimlane;fontStyle=1;align=center;verticalAlign=top;childLayout=stackLayout;horizontal=1;startSize=26;horizontalStack=0;resizeParent=1;resizeParentMax=0;resizeLast=0;collapsible=1;marginBottom=0;whiteSpace=wrap;html=1;fontSize=18;" parent="WIyWlLk6GJQsqaUBKTNV-1" vertex="1">
          <mxGeometry x="-540" y="930" width="230" height="150" as="geometry" />
        </mxCell>
        <mxCell id="dP5X064kNW8qpl2sILZL-28" value="+ wallClimbResults: Table&lt;br&gt;+ highJumpResults: Table&lt;br&gt;+ longJumpResults: Table&lt;br&gt;+ treadmilResults: Table" style="text;strokeColor=none;fillColor=none;align=left;verticalAlign=top;spacingLeft=4;spacingRight=4;overflow=hidden;rotatable=0;points=[[0,0.5],[1,0.5]];portConstraint=eastwest;whiteSpace=wrap;html=1;fontSize=18;" parent="dP5X064kNW8qpl2sILZL-27" vertex="1">
          <mxGeometry y="26" width="230" height="94" as="geometry" />
        </mxCell>
        <mxCell id="dP5X064kNW8qpl2sILZL-29" value="" style="line;strokeWidth=1;fillColor=none;align=left;verticalAlign=middle;spacingTop=-1;spacingLeft=3;spacingRight=3;rotatable=0;labelPosition=right;points=[];portConstraint=eastwest;strokeColor=inherit;" parent="dP5X064kNW8qpl2sILZL-27" vertex="1">
          <mxGeometry y="120" width="230" height="30" as="geometry" />
        </mxCell>
        <mxCell id="dP5X064kNW8qpl2sILZL-30" value="" style="endArrow=block;dashed=1;endFill=0;endSize=12;html=1;rounded=0;entryX=0.697;entryY=1.1;entryDx=0;entryDy=0;entryPerimeter=0;exitX=0.452;exitY=-0.027;exitDx=0;exitDy=0;fontSize=18;exitPerimeter=0;" parent="WIyWlLk6GJQsqaUBKTNV-1" source="dP5X064kNW8qpl2sILZL-27" target="dP5X064kNW8qpl2sILZL-12" edge="1">
          <mxGeometry width="160" relative="1" as="geometry">
            <mxPoint x="-757" y="1088" as="sourcePoint" />
            <mxPoint x="-694" y="966" as="targetPoint" />
          </mxGeometry>
        </mxCell>
        <mxCell id="dP5X064kNW8qpl2sILZL-31" value="&lt;font style=&quot;font-size: 18px;&quot;&gt;Implements&lt;/font&gt;" style="edgeLabel;html=1;align=center;verticalAlign=middle;resizable=0;points=[];" parent="dP5X064kNW8qpl2sILZL-30" vertex="1" connectable="0">
          <mxGeometry x="-0.1717" y="-1" relative="1" as="geometry">
            <mxPoint as="offset" />
          </mxGeometry>
        </mxCell>
        <mxCell id="dP5X064kNW8qpl2sILZL-35" value="Use" style="endArrow=open;endSize=12;dashed=1;html=1;rounded=0;entryX=1.002;entryY=0.652;entryDx=0;entryDy=0;exitX=-0.018;exitY=0.593;exitDx=0;exitDy=0;exitPerimeter=0;fontSize=18;entryPerimeter=0;" parent="WIyWlLk6GJQsqaUBKTNV-1" source="OT7LKlSEbB8u1TtDUH0v-51" target="OT7LKlSEbB8u1TtDUH0v-47" edge="1">
          <mxGeometry width="160" relative="1" as="geometry">
            <mxPoint x="-827" y="509" as="sourcePoint" />
            <mxPoint x="-559" y="500" as="targetPoint" />
          </mxGeometry>
        </mxCell>
        <mxCell id="dP5X064kNW8qpl2sILZL-36" value="Use" style="endArrow=open;endSize=12;dashed=1;html=1;rounded=0;entryX=0;entryY=0.5;entryDx=0;entryDy=0;exitX=1.007;exitY=0.385;exitDx=0;exitDy=0;exitPerimeter=0;fontSize=18;" parent="WIyWlLk6GJQsqaUBKTNV-1" source="OT7LKlSEbB8u1TtDUH0v-51" target="dP5X064kNW8qpl2sILZL-1" edge="1">
          <mxGeometry width="160" relative="1" as="geometry">
            <mxPoint x="-694" y="219" as="sourcePoint" />
            <mxPoint x="-860" y="223" as="targetPoint" />
          </mxGeometry>
        </mxCell>
        <mxCell id="dP5X064kNW8qpl2sILZL-39" value="Use" style="endArrow=open;endSize=12;dashed=1;html=1;rounded=0;entryX=-0.005;entryY=0.171;entryDx=0;entryDy=0;exitX=1;exitY=0.5;exitDx=0;exitDy=0;fontSize=18;entryPerimeter=0;" parent="WIyWlLk6GJQsqaUBKTNV-1" source="dP5X064kNW8qpl2sILZL-1" target="OT7LKlSEbB8u1TtDUH0v-21" edge="1">
          <mxGeometry width="160" relative="1" as="geometry">
            <mxPoint x="-438" y="183" as="sourcePoint" />
            <mxPoint x="-320" y="183" as="targetPoint" />
          </mxGeometry>
        </mxCell>
        <mxCell id="2SWjlD_sOtzZrf2Qzx4H-0" value="" style="endArrow=none;html=1;rounded=0;entryX=0.536;entryY=1.08;entryDx=0;entryDy=0;entryPerimeter=0;exitX=0.444;exitY=0.006;exitDx=0;exitDy=0;exitPerimeter=0;" edge="1" parent="WIyWlLk6GJQsqaUBKTNV-1" source="dP5X064kNW8qpl2sILZL-9" target="OT7LKlSEbB8u1TtDUH0v-53">
          <mxGeometry width="50" height="50" relative="1" as="geometry">
            <mxPoint x="-910" y="600" as="sourcePoint" />
            <mxPoint x="-900" y="570" as="targetPoint" />
          </mxGeometry>
        </mxCell>
      </root>
    </mxGraphModel>
  </diagram>
</mxfile>
